<svg xmlns="http://www.w3.org/2000/svg" width="192" height="192" viewBox="0 0 512 512" fill="none" role="img" aria-label="RacketClub">
  <rect width="512" height="512" rx="112" fill="#0f1117"/>
  <g transform="rotate(-32 256 256)">
    <ellipse cx="206" cy="186" rx="84" ry="104" fill="none" stroke="#4ade80" stroke-width="20"/>
    <g stroke="#4ade80" stroke-width="6" opacity="0.55" clip-path="url(#head)">
      <line x1="146" y1="82" x2="146" y2="290"/>
      <line x1="176" y1="82" x2="176" y2="290"/>
      <line x1="206" y1="82" x2="206" y2="290"/>
      <line x1="236" y1="82" x2="236" y2="290"/>
      <line x1="266" y1="82" x2="266" y2="290"/>
      <line x1="122" y1="118" x2="290" y2="118"/>
      <line x1="122" y1="152" x2="290" y2="152"/>
      <line x1="122" y1="186" x2="290" y2="186"/>
      <line x1="122" y1="220" x2="290" y2="220"/>
      <line x1="122" y1="254" x2="290" y2="254"/>
    </g>
    <rect x="194" y="286" width="24" height="168" rx="12" fill="#4ade80"/>
    <rect x="190" y="396" width="32" height="58" rx="14" fill="#166534"/>
  </g>
  <defs>
    <clipPath id="head">
      <ellipse cx="206" cy="186" rx="74" ry="94"/>
    </clipPath>
  </defs>
  <g transform="translate(348 322) rotate(28)">
    <path d="M0 0 L-46 -86 Q0 -106 46 -86 Z" fill="#f1f5f9"/>
    <line x1="0" y1="-2" x2="-30" y2="-86" stroke="#94a3b8" stroke-width="4"/>
    <line x1="0" y1="-2" x2="0" y2="-94" stroke="#94a3b8" stroke-width="4"/>
    <line x1="0" y1="-2" x2="30" y2="-86" stroke="#94a3b8" stroke-width="4"/>
    <circle cx="0" cy="6" r="26" fill="#facc15"/>
  </g>
</svg>
